<?xml version="1.0" standalone="no"?>
<!DOCTYPE svg PUBLIC "-//W3C//DTD SVG 20010904//EN"
 "http://www.w3.org/TR/2001/REC-SVG-20010904/DTD/svg10.dtd">
<svg version="1.0" xmlns="http://www.w3.org/2000/svg"
 width="200.000000pt" height="200.000000pt" viewBox="0 0 200.000000 200.000000"
 preserveAspectRatio="xMidYMid meet">

<g transform="translate(0.000000,200.000000) scale(0.100000,-0.100000)"
fill="#000000" stroke="none">
<path d="M1709 1563 l-94 -117 -134 -37 c-73 -21 -135 -39 -137 -41 -2 -2 38
-19 89 -37 51 -19 96 -37 101 -42 7 -7 0 -84 -21 -209 -5 -31 5 -22 92 87 107
135 81 119 283 174 45 12 79 26 75 30 -4 3 -47 21 -95 40 -101 37 -96 26 -74
174 8 50 13 91 11 93 -1 1 -45 -50 -96 -115z"/>
<path d="M970 1348 l-235 -300 -245 -69 c-135 -38 -291 -81 -347 -96 -57 -15
-103 -30 -103 -33 0 -3 113 -48 250 -99 138 -52 253 -97 255 -101 3 -4 -15
-141 -39 -304 -24 -163 -40 -295 -36 -294 5 2 112 136 239 298 127 162 237
297 244 301 6 4 161 48 342 98 182 50 337 94 345 97 8 3 -100 48 -240 101
-140 52 -258 98 -262 102 -3 3 13 139 38 301 24 162 44 296 44 298 1 17 -51
-45 -250 -300z"/>
</g>
</svg>
